<?xml version="1.0" encoding="UTF-8"?>
<svg id="Layer_1" xmlns="http://www.w3.org/2000/svg" version="1.1" viewBox="0 0 618.2 307.6">
  <!-- Generator: Adobe Illustrator 29.2.1, SVG Export Plug-In . SVG Version: 2.1.0 Build 116)  -->
  <defs>
    <style>
      .st0 {
        fill: none;
      }

      .st1 {
        fill: #101820;
      }

      .st2 {
        fill: #192aea;
      }
    </style>
  </defs>
  <g>
    <g>
      <g>
        <path class="st1" d="M338.4,65.6c0,9.1-7.1,14.3-14.9,14.3h-7.5v13.3h-10.8v-41.9h18.3c7.8,0,14.9,5.2,14.9,14.3M316.1,60.6v10h6.4c2.9,0,5-1.7,5-5s-2.1-5-5-5h-6.4Z"/>
        <path class="st1" d="M372.7,78.7c0,8.7-6.7,15-15.7,15s-15.6-6.3-15.6-15,6.6-15.1,15.6-15.1,15.7,6.4,15.7,15.1M352.1,78.7c0,3.4,2.1,6,5,6s5.1-2.6,5.1-6-2.2-6.1-5.1-6.1-5,2.6-5,6.1"/>
        <path class="st1" d="M397,73.9h-.9c-3.2,0-5.4,1.4-6.8,3.1v16.2h-10.5v-29h9.3l.6,3.7c1.4-2.4,4.3-4.3,8.2-4.3v10.4Z"/>
        <path class="st1" d="M417.5,64.1h7.7v8.8h-7.7v8.5c0,1.8,1.3,3,3.2,3s2.6-.4,3.4-.8l2.5,8.2c-1.7,1-3.9,1.9-6.9,1.9-7.9,0-12.7-4.4-12.7-12.2v-8.6h-4.9v-8.8h4.9v-2.9l10.5-6.5v9.4Z"/>
        <path class="st1" d="M460.9,78.7c0,8.7-6.7,15-15.7,15s-15.6-6.3-15.6-15,6.6-15.1,15.6-15.1,15.7,6.4,15.7,15.1M440.2,78.7c0,3.4,2.1,6,5,6s5.1-2.6,5.1-6-2.2-6.1-5.1-6.1-5,2.6-5,6.1"/>
      </g>
      <g>
        <path class="st1" d="M335.9,117.2c0,3.7-1.7,6.2-3.4,7.6,3.9,1.7,6.7,4.6,6.7,10.1,0,8.1-6.5,12.5-14,12.5h-19.9v-41.9h17.2c8.1,0,13.4,4.3,13.4,11.6M316.1,115.5v6.6h4.9c2.3,0,3.9-1.2,3.9-3.3s-1.7-3.3-3.9-3.3h-4.9ZM316.1,130.3v7.4h7.7c2.6,0,4.4-1.3,4.4-3.7s-1.8-3.7-4.4-3.7h-7.7Z"/>
        <path class="st1" d="M372.9,147.5h-9.3l-.5-2.9c-1.4,2.1-3.9,3.5-7.8,3.5-7,0-10.5-5.1-10.5-13.2v-16.5h10.5v15.9c0,2.3,1,3.9,3.2,3.9s3.4-1.3,4-2.5v-17.3h10.5v29Z"/>
        <path class="st1" d="M403.5,121l-3.7,7.2c-1.5-1.3-3.9-2.4-6.7-2.4s-2.7.6-2.7,1.5.6,1.4,4.6,2.3c5.6,1.4,8.5,4.1,8.5,8.4s-5,10.1-13.4,10.1-8.9-1.3-11.3-3.4l3.8-7.2c1.8,1.5,4.4,2.8,7.5,2.8s2.9-.5,2.9-1.5-.5-1.7-4-2.5c-6.2-1.5-9.2-3.8-9.2-8.3s4.8-10.1,13.2-10.1,8.1,1.1,10.4,3.1"/>
        <path class="st1" d="M421.1,109.4c0,3.4-2.4,5.9-5.9,5.9s-5.9-2.4-5.9-5.9,2.4-5.9,5.9-5.9,5.9,2.4,5.9,5.9M420.5,147.5h-10.5v-29h10.5v29Z"/>
        <path class="st1" d="M457,131v16.5h-10.5v-15.9c0-2.3-1.2-3.9-3.3-3.9s-3.4,1.3-4,2.5v17.3h-10.5v-29h9.3l.5,2.9c1.3-2.1,3.9-3.5,7.5-3.5,7.2,0,10.9,5.1,10.9,13.2"/>
        <path class="st1" d="M491.6,132.5v3h-18.4c.1,2.6,1.8,4.1,5,4.1s4.2-1,5.3-2.4l7.1,5.7c-3.2,3.5-7.1,5.2-12.6,5.2-9.2,0-15.4-6.3-15.4-15s6.2-15.1,15.2-15.1,13.8,6.7,13.8,14.6M473.2,129.6h8.1c0-2.3-1.4-4.3-3.9-4.3s-4.1,2-4.2,4.3"/>
        <path class="st1" d="M520.6,121l-3.7,7.2c-1.5-1.3-3.9-2.4-6.7-2.4s-2.7.6-2.7,1.5.6,1.4,4.6,2.3c5.6,1.4,8.5,4.1,8.5,8.4s-5,10.1-13.4,10.1-8.9-1.3-11.3-3.4l3.8-7.2c1.8,1.5,4.4,2.8,7.5,2.8s2.9-.5,2.9-1.5-.5-1.7-4-2.5c-6.2-1.5-9.2-3.8-9.2-8.3s4.8-10.1,13.2-10.1,8.1,1.1,10.4,3.1"/>
        <path class="st1" d="M549.5,121l-3.7,7.2c-1.5-1.3-3.9-2.4-6.7-2.4s-2.7.6-2.7,1.5.6,1.4,4.6,2.3c5.6,1.4,8.5,4.1,8.5,8.4s-5,10.1-13.4,10.1-8.9-1.3-11.3-3.4l3.8-7.2c1.8,1.5,4.4,2.8,7.5,2.8s2.9-.5,2.9-1.5-.5-1.7-4-2.5c-6.2-1.5-9.2-3.8-9.2-8.3s4.8-10.1,13.2-10.1,8.1,1.1,10.4,3.1"/>
      </g>
      <g>
        <path class="st1" d="M334.3,163.7l-5.6,8.9c-2.4-1.9-5.4-3.5-9.9-3.5s-4.6,1-4.6,3,1,2.4,6.7,3.4c11.3,2.3,14.5,6.7,14.5,13s-6.2,14-16.5,14-12.6-2-16.9-5.8l5.8-9c2.7,3,7.3,4.9,11.4,4.9s5.4-1.1,5.4-3.1-1.2-2.5-6.8-3.5c-11.3-2.4-14.4-7.3-14.4-13.4s6-13.4,15.5-13.4,11.8,1.7,15.4,4.4"/>
        <path class="st1" d="M366.9,179.2l-7.3,5.4c-1-2.1-2.4-3.2-4.8-3.2s-4.8,2.8-4.8,6.1,1.7,6.1,4.8,6.1,3.9-1.2,5-3.3l7.2,5.4c-2.6,4.3-6.7,6.9-12.2,6.9-8.8,0-15.4-6.4-15.4-15.1s6.6-15.1,15.4-15.1,9.6,2.6,12.2,6.9"/>
        <path class="st1" d="M382.4,174.9c1.4-1.6,3.8-2.7,6.9-2.7,7.2,0,10.9,5.1,10.9,13.2v16.5h-10.5v-15.9c0-2.3-1.2-3.9-3.3-3.9s-3.4,1.3-4,2.5v17.3h-10.5v-43.3h10.5v16.3Z"/>
        <path class="st1" d="M437.1,187.4c0,8.7-6.7,15-15.7,15s-15.6-6.3-15.6-15,6.6-15.1,15.6-15.1,15.7,6.4,15.7,15.1M416.4,187.4c0,3.4,2.1,6,5,6s5.1-2.6,5.1-6-2.2-6.1-5.1-6.1-5,2.6-5,6.1"/>
        <path class="st1" d="M473.2,187.4c0,8.7-6.7,15-15.7,15s-15.6-6.3-15.6-15,6.6-15.1,15.6-15.1,15.7,6.4,15.7,15.1M452.6,187.4c0,3.4,2.1,6,5,6s5.1-2.6,5.1-6-2.2-6.1-5.1-6.1-5,2.6-5,6.1"/>
        <rect class="st1" x="479.4" y="158.6" width="10.5" height="43.3"/>
      </g>
      <g>
        <path class="st1" d="M321.1,248.8c0,4.8-2.8,7.9-8.1,7.9s-8.1-3.1-8.1-7.9v-13.4h4.4v13.1c0,2.5,1.2,4.2,3.7,4.2s3.7-1.7,3.7-4.2v-13.1h4.3v13.4Z"/>
        <path class="st1" d="M339.1,248v8.3h-4.2v-8.1c0-1.6-.9-2.7-2.4-2.7s-2.2.8-2.7,1.7v9.1h-4.2v-14.4h3.8l.2,1.6c.7-1.1,2.1-1.9,4.1-1.9,3.5,0,5.4,2.5,5.4,6.4"/>
        <path class="st1" d="M347.8,237.3c0,1.4-1,2.4-2.4,2.4s-2.4-1-2.4-2.4,1-2.4,2.4-2.4,2.4,1,2.4,2.4M347.5,256.3h-4.2v-14.4h4.2v14.4Z"/>
        <polygon class="st1" points="358.4 256.6 358.3 256.6 350.3 241.9 355 241.9 358.3 248.9 361.6 241.9 366.3 241.9 358.4 256.6"/>
        <path class="st1" d="M381,248.9v1.3h-9.8c0,1.9,1.2,2.9,3.3,2.9s2.5-.6,3.2-1.5l2.9,2.3c-1.5,1.7-3.4,2.6-6.1,2.6-4.5,0-7.4-3.1-7.4-7.5s3-7.5,7.3-7.5,6.7,3.4,6.7,7.3M371.3,247.6h5.6c0-1.6-1-2.8-2.7-2.8s-2.8,1.2-2.9,2.8"/>
        <path class="st1" d="M392.7,245.7h-.3c-1.7,0-2.8.9-3.6,1.9v8.7h-4.2v-14.4h3.7l.3,1.9c.7-1.2,2.1-2.2,4.2-2.2v4.2Z"/>
        <path class="st1" d="M406.2,243.1l-1.6,3c-.8-.7-2-1.2-3.4-1.2s-1.9.4-1.9,1.1.5,1,2.6,1.5c3,.7,4.5,2.1,4.5,4.3s-2.4,4.8-6.3,4.8-4.3-.7-5.5-1.7l1.6-3c1,.8,2.3,1.5,4,1.5s2-.4,2-1.2-.5-1.2-2.4-1.6c-3.2-.8-4.6-1.9-4.6-4.2s2.2-4.7,6.1-4.7,3.9.6,5,1.6"/>
        <path class="st1" d="M414.4,237.3c0,1.4-1,2.4-2.4,2.4s-2.4-1-2.4-2.4,1-2.4,2.4-2.4,2.4,1,2.4,2.4M414,256.3h-4.2v-14.4h4.2v14.4Z"/>
        <path class="st1" d="M423.8,241.9h4.1v3.5h-4.1v5.5c0,1.3.8,2,2,2s1.5-.2,1.9-.4l1.1,3.3c-.8.5-1.8.9-3.3.9-3.5,0-5.8-2-5.8-5.7v-5.5h-2.6v-3.5h2.6v-4.8h4.2v4.8Z"/>
        <polygon class="st1" points="434.5 262.8 429.7 262.8 435.5 252.7 429.8 241.9 434.4 241.9 437.7 248.9 441 241.9 445.7 241.9 434.5 262.8"/>
        <path class="st1" d="M469.8,249.1c0,4.3-3.2,7.5-7.6,7.5s-7.6-3.1-7.6-7.5,3.2-7.5,7.6-7.5,7.6,3.2,7.6,7.5M458.8,249.1c0,2.2,1.4,3.8,3.4,3.8s3.4-1.6,3.4-3.8-1.4-3.9-3.4-3.9-3.4,1.7-3.4,3.9"/>
        <path class="st1" d="M483.4,235.6l-1.5,3.3c-.3-.3-.9-.6-1.6-.6-1.1,0-1.8.8-1.8,2.1v1.5h3.2v3.5h-3.2v10.9h-4.2v-10.9h-2.5v-3.5h2.5v-1.3c0-3.5,2.2-6,5.8-6s2.5.3,3.3.9"/>
        <path class="st1" d="M508,242.3c0,4.4-3.3,6.9-7.3,6.9h-4v7.1h-4.4v-20.9h8.4c4,0,7.3,2.5,7.3,6.9M496.7,239.1v6.3h3.6c2,0,3.4-1.1,3.4-3.2s-1.4-3.2-3.4-3.2h-3.6Z"/>
        <path class="st1" d="M524.9,249.1c0,4.3-3.2,7.5-7.6,7.5s-7.6-3.1-7.6-7.5,3.2-7.5,7.6-7.5,7.6,3.2,7.6,7.5M513.9,249.1c0,2.2,1.4,3.8,3.4,3.8s3.4-1.6,3.4-3.8-1.4-3.9-3.4-3.9-3.4,1.7-3.4,3.9"/>
        <path class="st1" d="M536.5,245.7h-.3c-1.7,0-2.8.9-3.6,1.9v8.7h-4.2v-14.4h3.7l.3,1.9c.7-1.2,2.1-2.2,4.2-2.2v4.2Z"/>
        <path class="st1" d="M545.2,241.9h4.1v3.5h-4.1v5.5c0,1.3.8,2,2,2s1.5-.2,1.9-.4l1.1,3.3c-.8.5-1.8.9-3.3.9-3.5,0-5.8-2-5.8-5.7v-5.5h-2.6v-3.5h2.6v-4.8h4.2v4.8Z"/>
        <path class="st1" d="M566.9,249.1c0,4.3-3.2,7.5-7.6,7.5s-7.6-3.1-7.6-7.5,3.2-7.5,7.6-7.5,7.6,3.2,7.6,7.5M555.9,249.1c0,2.2,1.4,3.8,3.4,3.8s3.4-1.6,3.4-3.8-1.4-3.9-3.4-3.9-3.4,1.7-3.4,3.9"/>
      </g>
    </g>
    <g>
      <polygon class="st2" points="51.3 51.3 256.3 256.3 256.3 51.3 51.3 51.3"/>
      <polygon class="st2" points="51.3 153.8 153.8 256.3 153.8 153.8 51.3 153.8"/>
      <polygon class="st2" points="51.3 205 102.5 256.3 102.5 205 51.3 205"/>
    </g>
  </g>
  <rect class="st0" width="618.2" height="307.6"/>
</svg>