<svg viewBox="95 182 330 158" fill="none" xmlns="http://www.w3.org/2000/svg">
<mask id="mask0_1527_1006" style="mask-type:luminance" maskUnits="userSpaceOnUse" x="109" y="195" width="296" height="129">
<path d="M404.533 195.2H109.867V323.2H404.533V195.2Z" fill="white"/>
</mask>
<g mask="url(#mask0_1527_1006)">
<path d="M162.332 266.255L179.937 294.214H153.228L139.957 269.589H139.332V294.214H116.874V225.193H146.645C150.072 225.193 153.426 225.542 156.707 226.235C159.983 226.932 162.968 228.12 165.666 229.797C168.374 231.479 170.525 233.776 172.124 236.693C173.718 239.61 174.52 243.271 174.52 247.672C174.52 251.88 173.463 255.599 171.353 258.818C169.254 262.026 166.249 264.505 162.332 266.255ZM139.145 254.339H143.666C144.749 254.339 145.921 254.208 147.187 253.943C148.447 253.667 149.53 253.125 150.437 252.318C151.338 251.5 151.791 250.276 151.791 248.651C151.791 247.026 151.395 245.828 150.603 245.047C149.822 244.271 148.879 243.776 147.77 243.568C146.655 243.349 145.614 243.235 144.645 243.235H139.145V254.339Z" fill="url(#paint0_linear_1527_1006)"/>
<path d="M205.105 296.214C201.366 296.214 197.772 295.62 194.314 294.443C190.855 293.276 187.756 291.537 185.022 289.214C182.282 286.896 180.116 284.005 178.522 280.547C176.939 277.089 176.147 273.104 176.147 268.589C176.147 262.938 177.423 258.058 179.98 253.943C182.532 249.818 185.97 246.63 190.293 244.38C194.626 242.12 199.407 240.985 204.647 240.985C210.006 240.985 214.715 242.209 218.772 244.651C222.824 247.084 225.98 250.401 228.23 254.61C230.491 258.818 231.626 263.63 231.626 269.047C231.626 269.896 231.611 270.755 231.584 271.63C231.553 272.495 231.506 273.224 231.439 273.818H196.98C197.157 275.625 198.152 277.058 199.959 278.11C201.762 279.167 203.689 279.693 205.73 279.693C207.772 279.693 209.512 279.318 210.959 278.568C212.402 277.818 213.459 276.995 214.126 276.089L230.105 284.214C227.866 287.88 224.569 290.797 220.209 292.964C215.845 295.13 210.814 296.214 205.105 296.214ZM196.793 261.735H212.23C212.23 259.933 211.564 258.443 210.23 257.276C208.907 256.099 207.111 255.505 204.834 255.505C202.361 255.505 200.444 256.203 199.084 257.589C197.736 258.979 196.97 260.36 196.793 261.735Z" fill="url(#paint1_linear_1527_1006)"/>
</g>
<path d="M361.087 264.631C361.087 267.88 361.863 270.438 363.42 272.297C364.988 274.161 367.254 275.089 370.212 275.089C373.155 275.089 375.421 274.161 377.004 272.297C378.597 270.438 379.399 267.881 379.399 264.631V225.193H402.504V267.151C402.504 272.568 401.264 277.474 398.795 281.859C396.337 286.25 392.681 289.745 387.837 292.339C383.004 294.922 377.004 296.214 369.837 296.214C362.681 296.214 356.732 294.922 351.982 292.339C347.444 289.861 344 286.559 341.658 282.44C344.375 279.025 346 274.703 346 270C346 263.375 342.778 257.503 337.816 253.863V225.193H361.087V264.631Z" fill="url(#paint2_linear_1527_1006)"/>
<path d="M257.334 269.505H257.709L264.293 242.964H285.938L293.063 269.505H293.334L299.563 242.964H322.584L319.818 250.975C311.798 253.579 306 261.112 306 270C306 274.133 307.254 277.972 309.401 281.16L304.896 294.214H282.418L274.563 267.88H274.396L266.626 294.214H244.355L226.834 242.964H250.834L257.334 269.505Z" fill="url(#paint3_linear_1527_1006)"/>
<path d="M325.5 254C334.613 254 342 261.387 342 270.5C342 279.613 334.613 287 325.5 287C316.387 287 309 279.613 309 270.5C309 261.387 316.387 254 325.5 254ZM324.411 263.661C323.087 262.717 321.25 263.664 321.25 265.29V275.71C321.25 277.336 323.087 278.283 324.411 277.339L331.717 272.128C332.835 271.33 332.835 269.67 331.717 268.872L324.411 263.661Z" fill="url(#paint4_linear_1527_1006)"/>
<defs>
<linearGradient id="paint0_linear_1527_1006" x1="148.405" y1="225.193" x2="148.405" y2="294.214" gradientUnits="userSpaceOnUse">
<stop stop-color="#292451"/>
<stop offset="1" stop-color="#482457"/>
</linearGradient>
<linearGradient id="paint1_linear_1527_1006" x1="203.887" y1="240.985" x2="203.887" y2="296.214" gradientUnits="userSpaceOnUse">
<stop stop-color="#292451"/>
<stop offset="1" stop-color="#482457"/>
</linearGradient>
<linearGradient id="paint2_linear_1527_1006" x1="370.16" y1="225.193" x2="370.16" y2="296.214" gradientUnits="userSpaceOnUse">
<stop stop-color="#292451"/>
<stop offset="1" stop-color="#482457"/>
</linearGradient>
<linearGradient id="paint3_linear_1527_1006" x1="274.709" y1="242.964" x2="274.709" y2="294.214" gradientUnits="userSpaceOnUse">
<stop stop-color="#292451"/>
<stop offset="1" stop-color="#482457"/>
</linearGradient>
<linearGradient id="paint4_linear_1527_1006" x1="325.5" y1="254" x2="325.5" y2="287" gradientUnits="userSpaceOnUse">
<stop stop-color="#292451"/>
<stop offset="1" stop-color="#482457"/>
</linearGradient>
</defs>
</svg>
