<?xml version="1.0" encoding="UTF-8"?>
<svg width="169px" height="32px" viewBox="0 0 169 32" version="1.1" xmlns="http://www.w3.org/2000/svg" xmlns:xlink="http://www.w3.org/1999/xlink">
    <!-- Generator: Sketch 53.2 (72643) - https://sketchapp.com -->
    <title>g14</title>
    <desc>Created with Sketch.</desc>
    <g id="Page-1" stroke="none" stroke-width="1" fill="none" fill-rule="evenodd">
        <g id="g14" transform="translate(84.947214, 15.840909) scale(1, -1) translate(-84.947214, -15.840909) translate(-0.052786, 0.340909)" fill="#00AEEF" fill-rule="nonzero">
            <g id="g20" transform="translate(0.168171, 1.648864)">
                <path d="M17.0674487,24.4318182 L13.2551496,21.0715909 C11.9159238,22.9323864 10.5533724,23.8625 9.16521994,23.8625 C8.48991789,23.8625 7.93750147,23.6818182 7.50797067,23.3210227 C7.07787097,22.9596591 6.86282111,22.5522727 6.86282111,22.1 C6.86282111,21.6471591 7.01642815,21.21875 7.32307331,20.8147727 C7.74065689,20.2755682 8.99909677,19.1181818 11.0995308,17.34375 C13.0634252,15.7034091 14.2547331,14.66875 14.6723167,14.2403409 C15.7157067,13.1875 16.4552962,12.1806818 16.891654,11.2198864 C17.3280117,10.2585227 17.5459062,9.20909091 17.5459062,8.07045455 C17.5459062,5.85511364 16.7790088,4.02443182 15.2446452,2.58011364 C13.7114194,1.13522727 11.7111144,0.413636364 9.24429912,0.413636364 C7.31795308,0.413636364 5.63965396,0.884659091 4.20940176,1.82727273 C2.7808563,2.76988636 1.55655132,4.25056818 0.537624633,6.27102273 L4.86592962,8.87840909 C6.16703812,6.49147727 7.6649912,5.29772727 9.35865103,5.29772727 C10.2427449,5.29772727 10.9851789,5.55454545 11.5870909,6.06931818 C12.188434,6.58295455 12.48939,7.17670455 12.48939,7.85 C12.48939,8.4625 12.261824,9.07443182 11.8078299,9.68636364 C11.3532669,10.2982955 10.3531144,11.2346591 8.8062346,12.4960227 C5.85868622,14.8954545 3.95509677,16.7471591 3.09546628,18.0511364 C2.23640469,19.3545455 1.8068739,20.6556818 1.8068739,21.9534091 C1.8068739,23.8261364 2.522,25.4329545 3.95111437,26.7732955 C5.38136657,28.1136364 7.14500293,28.7840909 9.24373021,28.7840909 C10.5931965,28.7840909 11.8795132,28.4715909 13.0998358,27.8477273 C14.3212962,27.2232955 15.6434545,26.0846591 17.0674487,24.4318182" id="path22"></path>
            </g>
            <g id="g24" transform="translate(19.950767, 1.797045)">
                <path d="M9.67155425,15.3409091 C8.26405865,15.3409091 7.09493842,14.84375 6.16305572,13.8494318 C5.23231085,12.8556818 4.7663695,11.5806818 4.7663695,10.0261364 C4.7663695,8.45965909 5.24084457,7.17045455 6.18808798,6.16022727 C7.13590029,5.14943182 8.30217595,4.64375 9.6886217,4.64375 C11.1188739,4.64375 12.3044927,5.14090909 13.2466158,6.13522727 C14.188739,7.12897727 14.6603695,8.43125 14.6603695,10.0426136 C14.6603695,11.6193182 14.188739,12.8971591 13.2466158,13.875 C12.3044927,14.8522727 11.1131848,15.3409091 9.67155425,15.3409091 L9.67155425,15.3409091 Z M14.4595425,19.0732955 L19.0148446,19.0732955 L19.0148446,0.944318182 L14.4595425,0.944318182 L14.4595425,2.86079545 C13.5708974,2.01647727 12.6794076,1.40852273 11.7856422,1.03636364 C10.890739,0.663636364 9.92130792,0.477840909 8.87734897,0.477840909 C6.53285044,0.477840909 4.50580645,1.38579545 2.79451026,3.20227273 C1.08378299,5.01818182 0.228134897,7.27670455 0.228134897,9.97556818 C0.228134897,12.775 1.05590616,15.06875 2.71144868,16.8573864 C4.3669912,18.6454545 6.37810557,19.5403409 8.74422287,19.5403409 C9.8331261,19.5403409 10.8543284,19.3340909 11.8101056,18.9238636 C12.7653138,18.5125 13.6488387,17.8960227 14.4595425,17.0738636 L14.4595425,19.0732955 Z" id="path26"></path>
            </g>
            <g id="g28" transform="translate(40.900036, 1.860284)">
                <path d="M13.085044,16.4772727 L10.2655015,13.6613636 C9.11913783,14.7943182 8.07973021,15.3607955 7.14557185,15.3607955 C6.63354839,15.3607955 6.23360117,15.2528409 5.94402346,15.0363636 C5.65444575,14.8193182 5.51051026,14.55 5.51051026,14.2278409 C5.51051026,13.9835227 5.60210557,13.7590909 5.78529619,13.5534091 C5.96905572,13.3477273 6.42191202,13.0670455 7.14557185,12.7119318 L8.8136305,11.8784091 C10.5715777,11.0119318 11.7782463,10.1289773 12.4336364,9.22897727 C13.0901642,8.32954545 13.4184282,7.27386364 13.4184282,6.06306818 C13.4184282,4.45227273 12.8261877,3.10852273 11.6417067,2.03068182 C10.4572258,0.953409091 8.86938416,0.414204545 6.87818182,0.414204545 C4.23102053,0.414204545 2.11750147,1.44772727 0.538193548,3.51420455 L3.34123754,6.56306818 C3.87544868,5.94090909 4.50068622,5.43863636 5.21808798,5.05454545 C5.93605865,4.67215909 6.57267449,4.48068182 7.12907331,4.48068182 C7.72984751,4.48068182 8.21342522,4.62443182 8.58037537,4.91306818 C8.94732551,5.20227273 9.13108504,5.53522727 9.13108504,5.91306818 C9.13108504,6.61306818 8.46943695,7.29659091 7.14557185,7.96306818 L5.61007038,8.72897727 C2.67390029,10.2068182 1.20553079,12.05625 1.20553079,14.2778409 C1.20553079,15.7107955 1.75851613,16.9363636 2.86562463,17.9522727 C3.97216422,18.96875 5.38762463,19.4767045 7.11200587,19.4767045 C8.29079765,19.4767045 9.3996129,19.2181818 10.4407273,18.7022727 C11.4807038,18.1852273 12.3619531,17.44375 13.085044,16.4772727" id="path30"></path>
            </g>
            <path d="M57.5047859,20.8704545 L62.0595191,20.8704545 L62.0595191,2.74147727 L57.5047859,2.74147727 L57.5047859,20.8704545 Z M59.7821525,28.3357955 C60.5809091,28.3357955 61.2653138,28.0465909 61.8365044,27.46875 C62.407695,26.8914773 62.6938592,26.1909091 62.6938592,25.3693182 C62.6938592,24.5579545 62.4105396,23.8676136 61.8450381,23.2954545 C61.2795367,22.7227273 60.6025279,22.4369318 59.8151496,22.4369318 C59.0061525,22.4369318 58.3154897,22.7289773 57.7437302,23.3113636 C57.1731085,23.8948864 56.8880821,24.6028409 56.8880821,25.4357955 C56.8880821,26.2357955 57.169695,26.9193182 57.7357654,27.4857955 C58.3012669,28.0522727 58.982827,28.3357955 59.7821525,28.3357955 L59.7821525,28.3357955 Z" id="path32"></path>
            <g id="g34" transform="translate(65.238957, 2.688693)">
                <path d="M0,18.1818182 L4.55530205,18.1818182 L4.55530205,16.3232955 C5.58731378,17.19375 6.5237478,17.7982955 7.36232845,18.1386364 C8.20090909,18.4778409 9.05883284,18.6482955 9.93666862,18.6482955 C11.7355777,18.6482955 13.2625455,18.0210227 14.5175718,16.7653409 C15.5729091,15.6988636 16.1008622,14.1215909 16.1008622,12.0335227 L16.1008622,0.0528409091 L11.5956246,0.0528409091 L11.5956246,7.99147727 C11.5956246,10.1556818 11.4989091,11.5914773 11.3043402,12.3022727 C11.1097713,13.0125 10.7718358,13.5534091 10.288827,13.925 C9.80581818,14.2965909 9.20959531,14.4823864 8.49958944,14.4823864 C7.57851613,14.4823864 6.78829326,14.1744318 6.12778299,13.5590909 C5.46784164,12.9426136 5.01043402,12.0914773 4.75442229,11.0039773 C4.62129619,10.4380682 4.55530205,9.2125 4.55530205,7.32613636 L4.55530205,0.0528409091 L0,0.0528409091 L0,18.1818182 Z" id="path36"></path>
            </g>
            <g id="g38" transform="translate(93.959150, 14.210455)">
                <path d="M5.1202346,7.38636364 L3.96818182,6.37102273 C3.56368328,6.93295455 3.15178886,7.21420455 2.73249853,7.21420455 C2.52825806,7.21420455 2.36099707,7.16022727 2.23185337,7.05056818 C2.10157185,6.94147727 2.03671554,6.81875 2.03671554,6.68181818 C2.03671554,6.54488636 2.08279765,6.41534091 2.17553079,6.29318182 C2.30239883,6.13068182 2.68243402,5.78125 3.31677419,5.24431818 C3.91015249,4.74886364 4.27027566,4.43636364 4.39657478,4.30681818 C4.71175367,3.98920455 4.93533724,3.68409091 5.0667566,3.39431818 C5.19874487,3.10397727 5.264739,2.78636364 5.264739,2.44261364 C5.264739,1.77272727 5.03319062,1.21988636 4.56952493,0.783522727 C4.10585924,0.346590909 3.50167155,0.128977273 2.75639296,0.128977273 C2.17382405,0.128977273 1.66748974,0.271590909 1.23511437,0.55625 C0.803307918,0.840340909 0.433513196,1.28863636 0.125730205,1.89886364 L1.43366569,2.68693182 C1.82621701,1.96534091 2.27907331,1.60454545 2.79052786,1.60454545 C3.05791789,1.60454545 3.2826393,1.68238636 3.46412317,1.8375 C3.64560704,1.99318182 3.73663343,2.17215909 3.73663343,2.37613636 C3.73663343,2.56079545 3.66779472,2.74602273 3.53068622,2.93068182 C3.39357771,3.11534091 3.09148387,3.39829545 2.62383578,3.77954545 C1.73348387,4.50511364 1.15831085,5.06420455 0.898316716,5.45795455 C0.638891496,5.85227273 0.509178886,6.24488636 0.509178886,6.6375 C0.509178886,7.20340909 0.724797654,7.68863636 1.15660411,8.09375 C1.58897947,8.49886364 2.12148387,8.70113636 2.75639296,8.70113636 C3.16430499,8.70113636 3.55230499,8.60681818 3.92153079,8.41818182 C4.29018768,8.22954545 4.6901349,7.88579545 5.1202346,7.38636364" id="path40"></path>
            </g>
            <g id="g42" transform="translate(100.199407, 14.247102)">
                <path d="M6.25806452,5.11363636 L4.99507331,4.41988636 C4.75783578,4.66818182 4.52344282,4.84034091 4.29189443,4.93636364 C4.06034604,5.03181818 3.78840469,5.08011364 3.4766393,5.08011364 C2.90943109,5.08011364 2.45088563,4.91136364 2.0998651,4.57329545 C1.74941349,4.23522727 1.5747566,3.80227273 1.5747566,3.27443182 C1.5747566,2.76079545 1.74315543,2.34147727 2.08052199,2.01704545 C2.41788856,1.69204545 2.86107331,1.52897727 3.41007625,1.52897727 C4.08879179,1.52897727 4.61731378,1.76079545 4.99507331,2.22272727 L6.19150147,1.40511364 C5.54293842,0.563068182 4.62869208,0.142045455 3.44705572,0.142045455 C2.38375367,0.142045455 1.55143109,0.456818182 0.949519062,1.08522727 C0.347607038,1.71420455 0.0466510264,2.45056818 0.0466510264,3.29375 C0.0466510264,3.87784091 0.19286217,4.41590909 0.485853372,4.90852273 C0.77827566,5.40056818 1.1867566,5.78693182 1.71072727,6.06818182 C2.23469795,6.34943182 2.82068035,6.48977273 3.4692434,6.48977273 C4.06887977,6.48977273 4.60821114,6.37045455 5.08553079,6.13181818 C5.56341935,5.89318182 5.95426393,5.55340909 6.25806452,5.11363636" id="path44"></path>
            </g>
            <g id="g46" transform="translate(107.829808, 14.389148)">
                <path d="M0,8.52272727 L1.50534897,8.52272727 L1.50534897,5.58181818 C1.80175367,5.83693182 2.0998651,6.02840909 2.4002522,6.15625 C2.70007038,6.28409091 3.00387097,6.34772727 3.31108504,6.34772727 C3.91129032,6.34772727 4.41705572,6.14090909 4.82781232,5.72613636 C5.17940176,5.36704545 5.3557654,4.84034091 5.3557654,4.14488636 L5.3557654,0.155113636 L3.86122581,0.155113636 L3.86122581,2.80227273 C3.86122581,3.50113636 3.82822874,3.97443182 3.76109677,4.22272727 C3.69453372,4.47045455 3.58075073,4.65511364 3.4197478,4.77727273 C3.25874487,4.89943182 3.05962463,4.96022727 2.8223871,4.96022727 C2.51517302,4.96022727 2.25119648,4.85909091 2.03045748,4.65511364 C1.81028739,4.45170455 1.65724927,4.17443182 1.57248094,3.82329545 C1.52810557,3.64147727 1.50534897,3.22784091 1.50534897,2.58011364 L1.50534897,0.155113636 L0,0.155113636 L0,8.52272727 Z" id="path48"></path>
            </g>
            <g id="g50" transform="translate(114.102835, 14.197159)">
                <path d="M3.41348974,5.11363636 C2.94242815,5.11363636 2.54987683,4.95 2.23640469,4.62272727 C1.92293255,4.29545455 1.76591202,3.87613636 1.76591202,3.36590909 C1.76591202,2.84034091 1.92122581,2.41534091 2.23071554,2.08977273 C2.54077419,1.76363636 2.9327566,1.60113636 3.40780059,1.60113636 C3.88284457,1.60113636 4.27824047,1.76590909 4.59341935,2.09545455 C4.90859824,2.42443182 5.06618768,2.84829545 5.06618768,3.36590909 C5.06618768,3.88352273 4.91144282,4.30454545 4.60195308,4.62840909 C4.29189443,4.95170455 3.89592962,5.11363636 3.41348974,5.11363636 M3.38845748,6.53977273 C3.95907918,6.53977273 4.49499707,6.39715909 4.99678006,6.1125 C5.49856305,5.82784091 5.89054545,5.44090909 6.17215836,4.95284091 C6.45377126,4.46420455 6.59429326,3.9375 6.59429326,3.37159091 C6.59429326,2.80170455 6.45263343,2.26875 6.16931378,1.77329545 C5.88599413,1.27784091 5.49970088,0.889772727 5.01100293,0.610795455 C4.52173607,0.331818182 3.98297361,0.192045455 3.39414663,0.192045455 C2.52712023,0.192045455 1.78753079,0.5 1.17424047,1.11590909 C0.561519062,1.73181818 0.2548739,2.47954545 0.2548739,3.36022727 C0.2548739,4.30340909 0.601343109,5.08977273 1.29371261,5.71818182 C1.90131378,6.26590909 2.59937243,6.53977273 3.38845748,6.53977273" id="path52"></path>
            </g>
            <g id="g54" transform="translate(121.386540, 14.197159)">
                <path d="M3.41348974,5.11363636 C2.94242815,5.11363636 2.54987683,4.95 2.23640469,4.62272727 C1.92293255,4.29545455 1.76591202,3.87613636 1.76591202,3.36590909 C1.76591202,2.84034091 1.92122581,2.41534091 2.23071554,2.08977273 C2.54077419,1.76363636 2.9327566,1.60113636 3.40780059,1.60113636 C3.88284457,1.60113636 4.27824047,1.76590909 4.59341935,2.09545455 C4.90859824,2.42443182 5.06618768,2.84829545 5.06618768,3.36590909 C5.06618768,3.88352273 4.91144282,4.30454545 4.60195308,4.62840909 C4.29189443,4.95170455 3.89592962,5.11363636 3.41348974,5.11363636 M3.38845748,6.53977273 C3.95907918,6.53977273 4.49499707,6.39715909 4.99678006,6.1125 C5.49856305,5.82784091 5.89054545,5.44090909 6.17215836,4.95284091 C6.45377126,4.46420455 6.59429326,3.9375 6.59429326,3.37159091 C6.59429326,2.80170455 6.45263343,2.26875 6.16931378,1.77329545 C5.88599413,1.27784091 5.49970088,0.889772727 5.01100293,0.610795455 C4.52173607,0.331818182 3.98297361,0.192045455 3.39414663,0.192045455 C2.52712023,0.192045455 1.78753079,0.5 1.17424047,1.11590909 C0.561519062,1.73181818 0.2548739,2.47954545 0.2548739,3.36022727 C0.2548739,4.30340909 0.601343109,5.08977273 1.29371261,5.71818182 C1.90131378,6.26590909 2.59937243,6.53977273 3.38845748,6.53977273" id="path56"></path>
            </g>
            <polygon id="path58" points="129.053238 22.9119318 130.569965 22.9119318 130.569965 14.5443182 129.053238 14.5443182"></polygon>
            <g id="g60" transform="translate(134.581555, 14.197159)">
                <path d="M3.41348974,5.11363636 C2.94242815,5.11363636 2.54987683,4.95 2.23640469,4.62272727 C1.92293255,4.29545455 1.76591202,3.87613636 1.76591202,3.36590909 C1.76591202,2.84034091 1.92122581,2.41534091 2.23071554,2.08977273 C2.54077419,1.76363636 2.9327566,1.60113636 3.40780059,1.60113636 C3.88284457,1.60113636 4.27824047,1.76590909 4.59341935,2.09545455 C4.90859824,2.42443182 5.06618768,2.84829545 5.06618768,3.36590909 C5.06618768,3.88352273 4.91144282,4.30454545 4.60195308,4.62840909 C4.29189443,4.95170455 3.89592962,5.11363636 3.41348974,5.11363636 M3.38845748,6.53977273 C3.95907918,6.53977273 4.49499707,6.39715909 4.99678006,6.1125 C5.49856305,5.82784091 5.89054545,5.44090909 6.17215836,4.95284091 C6.45377126,4.46420455 6.59429326,3.9375 6.59429326,3.37159091 C6.59429326,2.80170455 6.45263343,2.26875 6.16931378,1.77329545 C5.88599413,1.27784091 5.49970088,0.889772727 5.01100293,0.610795455 C4.52173607,0.331818182 3.98297361,0.192045455 3.39414663,0.192045455 C2.52712023,0.192045455 1.78753079,0.5 1.17424047,1.11590909 C0.561519062,1.73181818 0.2548739,2.47954545 0.2548739,3.36022727 C0.2548739,4.30340909 0.601343109,5.08977273 1.29371261,5.71818182 C1.90131378,6.26590909 2.59937243,6.53977273 3.38845748,6.53977273" id="path62"></path>
            </g>
            <g id="g64" transform="translate(141.692423, 14.331420)">
                <path d="M0,6.25 L0.538762463,6.25 C0.542744868,7.04204545 0.555829912,7.50965909 0.578017595,7.65397727 C0.618410557,7.98693182 0.758363636,8.25056818 0.997307918,8.44431818 C1.2362522,8.63863636 1.57418768,8.73579545 2.01111437,8.73579545 C2.32629326,8.73579545 2.6818651,8.66363636 3.07782991,8.51931818 L3.07782991,7.36534091 C2.85936657,7.42784091 2.67958944,7.45965909 2.53906745,7.45965909 C2.36099707,7.45965909 2.23185337,7.42215909 2.14992962,7.34886364 C2.09076246,7.29318182 2.06117889,7.17840909 2.06117889,7.00454545 L2.05548974,6.25 L3.01695601,6.25 L3.01695601,4.96818182 L2.05548974,4.96818182 L2.05548974,0.213068182 L0.538762463,0.213068182 L0.538762463,4.96818182 L0,4.96818182 L0,6.25 Z" id="path66"></path>
            </g>
            <g id="g68" transform="translate(93.876372, 2.252045)">
                <polygon id="path70" points="1.70674487 8.52272727 3.22233431 8.52272727 5.11682111 2.82954545 7.02837537 8.52272727 8.54339589 8.52272727 9.91448094 0.360795455 8.40970088 0.360795455 7.53357185 5.51534091 5.7972434 0.360795455 4.42615836 0.360795455 2.70575953 5.51534091 1.80858065 0.360795455 0.291853372 0.360795455"></polygon>
            </g>
            <g id="g72" transform="translate(104.316303, 2.293068)">
                <path d="M3.41348974,5.11363636 C2.94470381,5.11363636 2.55499707,4.94829545 2.24493842,4.61704545 C1.93487977,4.28579545 1.7801349,3.86136364 1.7801349,3.34375 C1.7801349,2.82215909 1.93772434,2.39318182 2.25347214,2.05625 C2.56921994,1.71931818 2.95721994,1.55113636 3.41917889,1.55113636 C3.8953607,1.55113636 4.29018768,1.71647727 4.60422874,2.04772727 C4.91826979,2.37954545 5.07472141,2.8125 5.07472141,3.34943182 C5.07472141,3.87443182 4.91826979,4.29943182 4.60422874,4.62556818 C4.29018768,4.95113636 3.89365396,5.11363636 3.41348974,5.11363636 L3.41348974,5.11363636 Z M5.00815836,6.35681818 L6.52488563,6.35681818 L6.52488563,0.319318182 L5.00815836,0.319318182 L5.00815836,0.957954545 C4.71175367,0.676136364 4.41534897,0.473863636 4.11723754,0.35 C3.81969501,0.226136364 3.49655132,0.164204545 3.14894428,0.164204545 C2.36839296,0.164204545 1.69365982,0.466477273 1.12360704,1.07159091 C0.554123167,1.67613636 0.269096774,2.42784091 0.269096774,3.32670455 C0.269096774,4.25909091 0.544451613,5.02329545 1.09573021,5.61875 C1.6470088,6.21420455 2.3166217,6.51193182 3.10456891,6.51193182 C3.46753666,6.51193182 3.80717889,6.44375 4.12577126,6.30681818 C4.44379472,6.16931818 4.73792375,5.96420455 5.00815836,5.69090909 L5.00815836,6.35681818 Z" id="path74"></path>
            </g>
            <g id="g76" transform="translate(112.374415, 2.399602)">
                <path d="M0,6.25 L1.51672727,6.25 L1.51672727,5.63125 C1.86092082,5.92102273 2.1721173,6.12215909 2.45145455,6.23579545 C2.73079179,6.34886364 3.0163871,6.40511364 3.30824047,6.40511364 C3.90787683,6.40511364 4.4164868,6.19602273 4.83407038,5.77840909 C5.18565982,5.42329545 5.36145455,4.89772727 5.36145455,4.20227273 L5.36145455,0.213068182 L3.86122581,0.213068182 L3.86122581,2.85681818 C3.86122581,3.57727273 3.82879765,4.05568182 3.76394135,4.29204545 C3.69965396,4.52897727 3.5870088,4.70852273 3.42600587,4.83238636 C3.26500293,4.95625 3.06702053,5.01818182 2.83035191,5.01818182 C2.52370674,5.01818182 2.26029912,4.91534091 2.04069795,4.71079545 C1.82052786,4.50568182 1.66862757,4.22215909 1.58329032,3.85965909 C1.53891496,3.67159091 1.51672727,3.26306818 1.51672727,2.63522727 L1.51672727,0.213068182 L0,0.213068182 L0,6.25 Z" id="path78"></path>
            </g>
            <g id="g80" transform="translate(118.655862, 2.293068)">
                <path d="M3.41348974,5.11363636 C2.94470381,5.11363636 2.55499707,4.94829545 2.24493842,4.61704545 C1.93487977,4.28579545 1.7801349,3.86136364 1.7801349,3.34375 C1.7801349,2.82215909 1.93772434,2.39318182 2.25347214,2.05625 C2.56921994,1.71931818 2.95721994,1.55113636 3.41917889,1.55113636 C3.8953607,1.55113636 4.29018768,1.71647727 4.60422874,2.04772727 C4.91826979,2.37954545 5.07472141,2.8125 5.07472141,3.34943182 C5.07472141,3.87443182 4.91826979,4.29943182 4.60422874,4.62556818 C4.29018768,4.95113636 3.89365396,5.11363636 3.41348974,5.11363636 L3.41348974,5.11363636 Z M5.00815836,6.35681818 L6.52488563,6.35681818 L6.52488563,0.319318182 L5.00815836,0.319318182 L5.00815836,0.957954545 C4.71175367,0.676136364 4.41534897,0.473863636 4.11723754,0.35 C3.81969501,0.226136364 3.49655132,0.164204545 3.14894428,0.164204545 C2.36839296,0.164204545 1.69365982,0.466477273 1.12360704,1.07159091 C0.554123167,1.67613636 0.269096774,2.42784091 0.269096774,3.32670455 C0.269096774,4.25909091 0.544451613,5.02329545 1.09573021,5.61875 C1.6470088,6.21420455 2.3166217,6.51193182 3.10456891,6.51193182 C3.46753666,6.51193182 3.80717889,6.44375 4.12577126,6.30681818 C4.44379472,6.16931818 4.73792375,5.96420455 5.00815836,5.69090909 L5.00815836,6.35681818 Z" id="path82"></path>
            </g>
            <g id="g84" transform="translate(126.195066, 0.003693)">
                <path d="M3.41348974,7.38636364 C2.93560117,7.38636364 2.54134311,7.22670455 2.23014663,6.90625 C1.91895015,6.58636364 1.76363636,6.18409091 1.76363636,5.69943182 C1.76363636,5.19659091 1.92293255,4.78409091 2.24095601,4.4625 C2.55954839,4.14034091 2.9594956,3.97954545 3.44136657,3.97954545 C3.91185924,3.97954545 4.29985924,4.13636364 4.60536657,4.45113636 C4.9108739,4.76590909 5.06334311,5.17784091 5.06334311,5.68863636 C5.06334311,6.19147727 4.90973607,6.6 4.60252199,6.91477273 C4.29530792,7.22954545 3.89877419,7.38636364 3.41348974,7.38636364 L3.41348974,7.38636364 Z M4.98597067,8.64602273 L6.4970088,8.64602273 L6.4970088,3.47443182 C6.4970088,2.45340909 6.2916305,1.70284091 5.88030499,1.22159091 C5.32845748,0.571022727 4.49670381,0.245454545 3.3856129,0.245454545 C2.79280352,0.245454545 2.29500293,0.319318182 1.89107331,0.467045455 C1.4871437,0.615340909 1.14693255,0.832386364 0.868733138,1.11931818 C0.591102639,1.40625 0.38572434,1.75454545 0.252029326,2.16534091 L1.9246393,2.16534091 C2.0731261,1.99488636 2.26371261,1.86647727 2.49696774,1.77954545 C2.73022287,1.69261364 3.00614663,1.64886364 3.324739,1.64886364 C3.73208211,1.64886364 4.05977713,1.71193182 4.30782405,1.8375 C4.55643988,1.96363636 4.73109677,2.12613636 4.83293255,2.32613636 C4.93476833,2.52556818 4.98597067,2.86988636 4.98597067,3.35795455 C4.71914956,3.09147727 4.43981232,2.9 4.14682111,2.78352273 C3.85382991,2.66704545 3.52272141,2.60909091 3.15235777,2.60909091 C2.34108504,2.60909091 1.65611144,2.90113636 1.09686804,3.48579545 C0.537055718,4.06988636 0.257718475,4.81022727 0.257718475,5.70511364 C0.257718475,6.66363636 0.554123167,7.43238636 1.14693255,8.01363636 C1.68398827,8.53863636 2.32458651,8.80113636 3.06929619,8.80113636 C3.41747214,8.80113636 3.74573607,8.7375 4.05522581,8.60965909 C4.36471554,8.48238636 4.67477419,8.27272727 4.98597067,7.98011364 L4.98597067,8.64602273 Z" id="path86"></path>
            </g>
            <g id="g88" transform="translate(133.644324, 2.408523)">
                <path d="M5.1202346,3.97727273 C5.02010557,4.31420455 4.82269208,4.5875 4.52742522,4.79829545 C4.23215836,5.00909091 3.89024047,5.11477273 3.50053372,5.11477273 C3.07782991,5.11477273 2.70689736,4.99659091 2.38773607,4.75965909 C2.18747801,4.61136364 2.00201173,4.35056818 1.83133724,3.97727273 L5.1202346,3.97727273 Z M6.63696188,2.78409091 L1.76477419,2.78409091 C1.83531965,2.35568182 2.02306158,2.01420455 2.32856891,1.76079545 C2.63407625,1.50681818 3.02378299,1.38068182 3.49768915,1.38068182 C4.06489736,1.38068182 4.55188856,1.57840909 4.95923167,1.97443182 L6.23701466,1.375 C5.91842229,0.923863636 5.53668035,0.589772727 5.09235777,0.373295455 C4.64803519,0.156818182 4.12008211,0.0488636364 3.50906745,0.0488636364 C2.56068622,0.0488636364 1.78866862,0.347159091 1.19244575,0.944886364 C0.596222874,1.54261364 0.297542522,2.29034091 0.297542522,3.18920455 C0.297542522,4.11022727 0.595085044,4.875 1.18960117,5.48352273 C1.7841173,6.09261364 2.52939589,6.39659091 3.42543695,6.39659091 C4.37723167,6.39659091 5.15209384,6.09261364 5.74831672,5.48352273 C6.34397067,4.875 6.64265103,4.07159091 6.64265103,3.07272727 L6.63696188,2.78409091 Z" id="path90"></path>
            </g>
            <g id="g92" transform="translate(141.497968, 2.399602)">
                <path d="M0,6.25 L1.51672727,6.25 L1.51672727,5.55625 C1.77615249,5.84090909 2.06459238,6.05397727 2.38147801,6.19431818 C2.69779472,6.33465909 3.04426393,6.40511364 3.41804106,6.40511364 C3.7963695,6.40511364 4.13714956,6.3125 4.44151906,6.12784091 C4.74531965,5.94318182 4.98995308,5.67272727 5.17541935,5.31761364 C5.41607038,5.67272727 5.71133724,5.94318182 6.06178886,6.12784091 C6.41224047,6.3125 6.79455132,6.40511364 7.20985924,6.40511364 C7.63995894,6.40511364 8.01828739,6.30568182 8.34427566,6.10568182 C8.67026393,5.90625 8.90465689,5.64545455 9.04745455,5.32329545 C9.1902522,5.00170455 9.26136657,4.47840909 9.26136657,3.75284091 L9.26136657,0.213068182 L7.73382991,0.213068182 L7.73382991,3.27613636 C7.73382991,3.96022727 7.64849267,4.42329545 7.4783871,4.66590909 C7.30771261,4.90852273 7.05226979,5.02954545 6.71148974,5.02954545 C6.45206452,5.02954545 6.21994721,4.95568182 6.014,4.80738636 C5.8086217,4.65909091 5.65558358,4.45511364 5.55602346,4.19431818 C5.45589443,3.93352273 5.40582991,3.51477273 5.40582991,2.9375 L5.40582991,0.213068182 L3.87772434,0.213068182 L3.87772434,3.13693182 C3.87772434,3.67727273 3.83790029,4.06818182 3.7582522,4.31079545 C3.67860411,4.55340909 3.55856305,4.73352273 3.39926686,4.85170455 C3.23940176,4.96988636 3.04597067,5.02954545 2.81954252,5.02954545 C2.5675132,5.02954545 2.33767155,4.95454545 2.13229326,4.80454545 C1.92634604,4.65454545 1.77160117,4.44488636 1.67033431,4.175 C1.56792962,3.90454545 1.51672727,3.47954545 1.51672727,2.89886364 L1.51672727,0.213068182 L0,0.213068182 L0,6.25 Z" id="path94"></path>
            </g>
            <g id="g96" transform="translate(151.622890, 2.408523)">
                <path d="M5.1202346,3.97727273 C5.02010557,4.31420455 4.82269208,4.5875 4.52742522,4.79829545 C4.23215836,5.00909091 3.89024047,5.11477273 3.50053372,5.11477273 C3.07782991,5.11477273 2.70689736,4.99659091 2.38773607,4.75965909 C2.18747801,4.61136364 2.00201173,4.35056818 1.83133724,3.97727273 L5.1202346,3.97727273 Z M6.63696188,2.78409091 L1.76477419,2.78409091 C1.83531965,2.35568182 2.02306158,2.01420455 2.32856891,1.76079545 C2.63407625,1.50681818 3.02378299,1.38068182 3.49768915,1.38068182 C4.06489736,1.38068182 4.55188856,1.57840909 4.95923167,1.97443182 L6.23701466,1.375 C5.91842229,0.923863636 5.53668035,0.589772727 5.09235777,0.373295455 C4.64803519,0.156818182 4.12008211,0.0488636364 3.50906745,0.0488636364 C2.56068622,0.0488636364 1.78866862,0.347159091 1.19244575,0.944886364 C0.596222874,1.54261364 0.297542522,2.29034091 0.297542522,3.18920455 C0.297542522,4.11022727 0.595085044,4.875 1.18960117,5.48352273 C1.7841173,6.09261364 2.52939589,6.39659091 3.42543695,6.39659091 C4.37723167,6.39659091 5.15209384,6.09261364 5.74831672,5.48352273 C6.34397067,4.875 6.64265103,4.07159091 6.64265103,3.07272727 L6.63696188,2.78409091 Z" id="path98"></path>
            </g>
            <g id="g100" transform="translate(159.487684, 2.399602)">
                <path d="M0,6.25 L1.51672727,6.25 L1.51672727,5.63125 C1.86092082,5.92102273 2.1721173,6.12215909 2.45145455,6.23579545 C2.73079179,6.34886364 3.0163871,6.40511364 3.30824047,6.40511364 C3.90787683,6.40511364 4.4164868,6.19602273 4.83407038,5.77840909 C5.18565982,5.42329545 5.36145455,4.89772727 5.36145455,4.20227273 L5.36145455,0.213068182 L3.86122581,0.213068182 L3.86122581,2.85681818 C3.86122581,3.57727273 3.82879765,4.05568182 3.76394135,4.29204545 C3.69965396,4.52897727 3.5870088,4.70852273 3.42600587,4.83238636 C3.26500293,4.95625 3.06702053,5.01818182 2.83035191,5.01818182 C2.52370674,5.01818182 2.26029912,4.91534091 2.04069795,4.71079545 C1.82052786,4.50568182 1.66862757,4.22215909 1.58329032,3.85965909 C1.53891496,3.67159091 1.51672727,3.26306818 1.51672727,2.63522727 L1.51672727,0.213068182 L0,0.213068182 L0,6.25 Z" id="path102"></path>
            </g>
            <g id="g104" transform="translate(165.361333, 2.351875)">
                <polygon id="path106" points="1.13782991 8.52272727 2.65455718 8.52272727 2.65455718 6.29772727 3.55458065 6.29772727 3.55458065 4.99375 2.65455718 4.99375 2.65455718 0.260795455 1.13782991 0.260795455 1.13782991 4.99375 0.360123167 4.99375 0.360123167 6.29772727 1.13782991 6.29772727"></polygon>
            </g>
            <polygon id="path108" points="87.7403402 2.74147727 87.4558827 2.74147727 87.4558827 22.9846591 87.7403402 22.9846591"></polygon>
        </g>
    </g>
</svg>